<svg width="704" height="388" viewBox="0 0 704 388" fill="none" xmlns="http://www.w3.org/2000/svg">
<path d="M0.730347 153.084C2.61094 158.95 10.4157 162.544 26.0253 169.732L489.235 383.027C494.94 385.654 497.793 386.967 500.752 387.011C501.851 387.027 502.947 386.914 504.019 386.674C506.907 386.027 509.432 384.159 514.481 380.423L682.58 256.033C695.655 246.358 702.192 241.521 702.944 235.585C703.213 233.467 702.993 231.315 702.302 229.294C700.365 223.634 692.985 220.218 678.224 213.386L227.739 4.88481C222.349 2.3903 219.655 1.14305 216.841 1.04022C215.795 1.00202 214.749 1.0811 213.721 1.27598C210.955 1.80055 208.478 3.43866 203.525 6.71487L22.7011 126.311C9.84056 134.817 2.7495 139.507 0.730347 144.775M487.536 349.608L632.512 242.329C645.587 232.654 652.124 227.816 652.876 221.881C653.144 219.762 652.925 217.611 652.233 215.59C650.297 209.929 642.917 206.513 628.156 199.682L231.897 16.2771C226.507 13.7826 223.813 12.5353 220.999 12.4325C219.953 12.3943 218.907 12.4734 217.879 12.6683C215.113 13.1928 212.636 14.8309 207.683 18.1072L51.7158 121.263C37.3823 130.743 30.2156 135.483 29.2499 141.567C28.9062 143.733 29.0758 145.948 29.7451 148.036C31.6257 153.902 39.4304 157.496 55.0399 164.684L462.289 352.212C467.995 354.839 470.847 356.153 473.807 356.196C474.905 356.213 476.002 356.1 477.073 355.859C479.962 355.213 482.487 353.345 487.536 349.608Z" stroke="black" stroke-width="0.75"/>
</svg>
