<svg width="415" height="231" viewBox="0 0 415 231" fill="none" xmlns="http://www.w3.org/2000/svg">
<path fill-rule="evenodd" clip-rule="evenodd" d="M159.905 91.7031C165.608 80.1754 166.031 70.2842 162.642 60.8178C158.812 50.1217 150.176 40.2072 139.807 29.2047C129.014 17.7537 105.504 5.90207 80.792 1.94619C56.0594 -2.01304 29.3896 1.84128 12.9401 22.8081C4.86716 33.098 1.16816 42.3402 0.499969 50.844C-0.169567 59.3649 2.22109 66.9317 6.26146 73.4254C13.1852 84.5534 24.9139 93.0556 33.6822 99.4117C35.0232 100.384 36.2953 101.306 37.47 102.179C42.3506 105.808 51.2202 108.967 61.7481 111.297C72.3626 113.646 84.947 115.214 97.478 115.505C109.997 115.795 122.556 114.815 133.085 112.014C137.052 110.958 140.783 109.63 144.133 107.984L144.136 107.983C148.993 105.748 153.463 102.723 156.422 98.595C157.866 96.5797 159.006 94.2201 159.905 91.7031ZM160.709 61.3565C157.017 51.1614 148.712 41.5682 138.348 30.5713C117.531 8.48376 46.1193 -16.2393 14.5182 24.0399C-14.9752 61.6327 15.8724 84.0173 34.8138 97.7621C36.1673 98.7443 37.4602 99.6825 38.6658 100.579C48.9752 108.244 80.0627 114.495 107.933 113.44C107.528 112.982 106.979 112.351 106.323 111.575C104.888 109.878 102.938 107.482 100.877 104.682C96.7981 99.1419 92.1179 91.8013 90.293 85.1046C89.9333 83.7843 89.5344 82.4647 89.1386 81.155C88.3536 78.5579 87.5802 75.9989 87.1465 73.5512C81.0589 77.1122 73.937 80.2196 66.884 81.293C58.7511 82.5307 50.5024 81.0745 44.2517 74.2636C33.7497 62.8204 34.0078 46.3557 44.0254 34.6517C55.0927 21.7212 75.4794 20.0266 87.7973 32.0232C93.2587 37.3421 97.2971 44.8982 98.2506 52.3118C98.2848 52.5774 98.315 52.843 98.3411 53.1087C101.649 51.8679 105.325 51.1966 108.748 50.844C112.465 50.4609 115.975 50.4454 118.548 50.5239C119.837 50.5632 120.898 50.6264 121.64 50.6801C122.011 50.707 122.303 50.7315 122.504 50.7496C122.605 50.7586 122.683 50.766 122.737 50.7713L122.8 50.7776L122.823 50.7799L122.825 50.7801C122.825 50.7801 122.826 50.7802 122.619 52.7664C122.619 52.7664 108.247 51.2571 98.4616 55.2064C98.5626 61.6954 96.0812 67.9437 89.7294 71.9762C89.4865 72.1305 89.2414 72.2843 88.9943 72.4376C89.3693 75.0004 90.1561 77.6 91.0046 80.4037C91.4102 81.744 91.8301 83.1314 92.2257 84.5833C95.6692 97.22 110.173 112.943 110.173 112.943C110.173 112.943 129.221 112.636 143.277 106.177C148.499 103.606 152.629 100.286 155.186 96.0973C156.266 94.3279 157.221 92.6038 158.058 90.9206C162.168 79.2912 161.125 63.5467 161.125 63.5467L122.619 52.7664L122.826 50.7802L122.994 50.7979L160.709 61.3565ZM88.7803 70.2091C94.0453 66.8079 96.3202 61.6839 96.4565 56.1311C94.0183 57.4146 92.0116 59.1311 90.8085 61.4175C89.1783 64.5155 88.6623 67.3695 88.7803 70.2091ZM89.0347 60.4877C90.6328 57.4506 93.3518 55.364 96.4015 53.9254C95.868 46.5909 91.9106 38.8189 86.3988 33.451C74.9724 22.3226 55.9223 23.8304 45.5496 35.9493C36.1454 46.9366 35.9527 62.2646 45.7284 72.9164C56.5444 84.7017 74.0164 79.0915 86.8541 71.4004C86.532 67.9021 87.0033 64.3482 89.0347 60.4877Z" fill="#87A330"/>
<path fill-rule="evenodd" clip-rule="evenodd" d="M101.752 152.064L158.309 182.258L291.029 77.1897L237.381 52.8202L101.752 152.064ZM105.502 151.799L237.619 55.1248L287.219 77.6554L158.095 179.877L105.502 151.799Z" fill="#87A330"/>
<path d="M364.76 161.34L364.762 161.339L364.777 161.337L364.839 161.329C364.895 161.322 364.98 161.31 365.092 161.293C365.315 161.259 365.645 161.205 366.061 161.127C366.894 160.971 368.07 160.718 369.431 160.333C372.166 159.56 375.594 158.267 378.5 156.19L379.668 157.814C376.501 160.078 372.828 161.449 369.98 162.255C368.55 162.659 367.314 162.925 366.433 163.09C365.993 163.172 365.64 163.23 365.395 163.267L365.331 163.276C365.293 163.312 365.25 163.351 365.203 163.395C364.976 163.607 364.647 163.916 364.249 164.301C363.451 165.072 362.375 166.145 361.258 167.354C360.14 168.566 358.992 169.903 358.045 171.204C357.085 172.521 356.385 173.73 356.093 174.694C355.636 176.201 354.506 177.084 353.205 177.644C351.936 178.19 350.371 178.488 348.834 178.764L348.547 178.816C345.434 179.374 342.346 179.927 340.244 181.86C339.229 182.795 338.575 183.992 338.081 185.365C337.698 186.433 337.43 187.543 337.154 188.693C337.068 189.049 336.981 189.409 336.89 189.772C336.15 192.719 335.107 195.931 331.388 197.029C330.141 197.397 328.852 197.166 327.705 196.797C326.808 196.509 325.888 196.095 325.054 195.721L324.836 195.623L324.652 195.541C324.565 195.502 324.479 195.464 324.394 195.427C323.336 194.963 322.506 194.659 321.854 194.623C321.553 194.606 321.339 194.651 321.178 194.731C321.023 194.808 320.846 194.952 320.669 195.251C320.383 195.734 320.277 196.567 320.417 197.738C320.553 198.87 320.898 200.146 321.313 201.368C321.725 202.582 322.195 203.709 322.563 204.533C322.747 204.945 322.904 205.279 323.015 205.51L323.056 205.594L323.08 205.644L323.113 205.711L323.144 205.773L323.177 205.84L323.185 205.856L323.187 205.859C323.187 205.859 323.187 205.86 322.294 206.311C321.401 206.762 321.401 206.762 321.401 206.762L321.4 206.76L321.397 206.754L321.387 206.733L321.348 206.657C321.316 206.591 321.268 206.495 321.209 206.372C321.091 206.127 320.926 205.775 320.733 205.343C320.349 204.482 319.854 203.297 319.415 202.006C318.979 200.722 318.588 199.299 318.428 197.973C318.274 196.685 318.314 195.299 318.943 194.235C319.286 193.656 319.732 193.216 320.284 192.943C320.831 192.672 321.409 192.598 321.965 192.629C323.027 192.688 324.172 193.149 325.198 193.599C325.449 193.709 325.695 193.819 325.939 193.928C326.757 194.295 327.538 194.646 328.318 194.897C329.324 195.221 330.145 195.312 330.817 195.114C333.363 194.362 334.198 192.266 334.947 189.285C335.027 188.967 335.106 188.638 335.187 188.302L335.188 188.295C335.47 187.125 335.772 185.87 336.195 184.69C336.751 183.144 337.548 181.622 338.885 180.392C341.429 178.052 345.055 177.407 348 176.884L348.007 176.883C348.166 176.854 348.322 176.827 348.477 176.799C350.055 176.515 351.388 176.25 352.409 175.81C353.398 175.385 353.95 174.858 354.176 174.113C354.567 172.824 355.427 171.398 356.423 170.029C357.432 168.644 358.636 167.244 359.783 166.001C360.933 164.756 362.037 163.655 362.854 162.866C363.263 162.471 363.6 162.154 363.836 161.934C363.954 161.825 364.046 161.739 364.11 161.681L364.183 161.614L364.202 161.597L364.209 161.591C364.209 161.591 364.21 161.59 364.882 162.331L364.209 161.591L364.445 161.378L364.76 161.34Z" fill="#87A330"/>
<path fill-rule="evenodd" clip-rule="evenodd" d="M289.547 199.197L371.974 130.589C375.36 127.771 380.015 127.033 384.103 128.665L406.628 137.658C414.912 140.966 416.814 151.836 410.146 157.767L331.573 227.661C328.203 230.658 323.438 231.515 319.237 229.878L292.858 219.599C284.345 216.282 282.522 205.044 289.547 199.197ZM290.826 200.733C284.971 205.606 286.491 214.971 293.585 217.736L319.965 228.015C323.465 229.379 327.436 228.665 330.244 226.167L408.817 156.273C414.373 151.331 412.789 142.272 405.886 139.516L383.361 130.523C379.954 129.163 376.074 129.778 373.253 132.126L290.826 200.733Z" fill="#87A330"/>
<path fill-rule="evenodd" clip-rule="evenodd" d="M178.229 187.055L313.859 87.811L367.507 112.18L234.787 217.249L178.229 187.055ZM181.979 186.79L234.573 214.867L363.696 112.646L314.096 90.1155L181.979 186.79Z" fill="#87A330"/>
</svg>
